<svg width="720" height="560" viewBox="0 0 720 560" xmlns="http://www.w3.org/2000/svg" font-family="sans-serif" role="img"
     aria-label="Solarpunk-style illustration of a large multi-cell tetrahedral kite lattice, similar in scale to Alexander Graham Bell's historical multi-cell kite arrays, with small VINDSNURR-style vertical-axis rotors nested in the open bays between layers, tethered to a small ground station.">
  <title>Tetrahedral kite lattice with embedded rotor array — exploratory illustration</title>
  <style>
    svg { background: #fdf6e3; }
    .sky-grad { fill: #fbe9c9; }
    .sun { fill: #f4b942; opacity: 0.85; }
    .cell-face-a { fill: #e8a24a; fill-opacity: 0.55; stroke: none; }
    .cell-face-b { fill: #5fae82; fill-opacity: 0.55; stroke: none; }
    .strut { stroke: #6b4a2f; stroke-width: 1.3; fill: none; }
    .joint { fill: #3f6b4f; stroke: #274a35; stroke-width: 0.8; }
    .rotor-shaft { stroke: #274a35; stroke-width: 1.6; }
    .rotor-blade { fill: #dd6b4a; fill-opacity: 0.9; stroke: #7a3620; stroke-width: 0.8; }
    .tether { stroke: #7a221c; stroke-width: 2; stroke-dasharray: 6 4; fill: none; }
    .ground { fill: #cfead0; }
    .ground-station { fill: #fff8e8; stroke: #b58a4a; stroke-width: 1.5; }
    .leaf { fill: #5fae82; opacity: 0.8; }
    .label-bold { font-size: 16px; fill: #3a2c1a; font-weight: 700; }
    .label { font-size: 12.5px; fill: #3a2c1a; }
    .callout { font-size: 11.5px; fill: #6b5a3f; }
    @media (prefers-color-scheme: dark) {
      svg { background: #1a1a18; }
      .sky-grad { fill: #2a2416; }
      .sun { fill: #f4b942; opacity: 0.6; }
      .strut { stroke: #d8c9a8; }
      .joint { fill: #7fcf9f; stroke: #3f6b4f; }
      .rotor-shaft { stroke: #d8c9a8; }
      .ground { fill: #21361f; }
      .ground-station { fill: #2e2e2b; stroke: #7a5f34; }
      .leaf { fill: #4f9068; }
      .label-bold { fill: #f0e6cc; }
      .label { fill: #f0e6cc; }
      .callout { fill: #c9bc9e; }
    }
  </style>

  <rect class="sky-grad" x="0" y="0" width="720" height="400"/>
  <rect class="ground" x="0" y="400" width="720" height="160"/>
  <circle class="sun" cx="650" cy="55" r="34"/>

  <text class="label-bold" x="360.0" y="26" text-anchor="middle">A kite lattice carrying its own wind rotors</text>
  <text class="callout" x="360.0" y="44" text-anchor="middle">Exploratory illustration — see kite-energy/README.md for the physics and open structural questions</text>

  <polygon class="cell-face-a" points="208.74,323.97 284.37,323.97 246.55,327.98"/><polygon class="cell-face-b" points="284.37,323.97 360.0,323.97 322.18,327.98"/><polygon class="cell-face-a" points="360.0,323.97 435.63,323.97 397.82,327.98"/><polygon class="cell-face-b" points="435.63,323.97 511.26,323.97 473.45,327.98"/><polygon class="cell-face-a" points="246.55,262.98 322.18,262.98 284.37,266.98"/><polygon class="cell-face-b" points="322.18,262.98 397.82,262.98 360.0,266.98"/><polygon class="cell-face-a" points="397.82,262.98 473.45,262.98 435.63,266.98"/><polygon class="cell-face-b" points="246.55,327.98 322.18,327.98 284.37,331.98"/><polygon class="cell-face-a" points="322.18,327.98 397.82,327.98 360.0,331.98"/><polygon class="cell-face-b" points="397.82,327.98 473.45,327.98 435.63,331.98"/><polygon class="cell-face-a" points="284.37,201.98 360.0,201.98 322.18,205.99"/><polygon class="cell-face-b" points="360.0,201.98 435.63,201.98 397.82,205.99"/><polygon class="cell-face-a" points="284.37,266.98 360.0,266.98 322.18,270.99"/><polygon class="cell-face-b" points="360.0,266.98 435.63,266.98 397.82,270.99"/><polygon class="cell-face-a" points="322.18,140.99 397.82,140.99 360.0,145.0"/><polygon class="cell-face-b" points="284.37,331.98 360.0,331.98 322.18,335.99"/><polygon class="cell-face-a" points="360.0,331.98 435.63,331.98 397.82,335.99"/><polygon class="cell-face-b" points="322.18,205.99 397.82,205.99 360.0,210.0"/><polygon class="cell-face-a" points="322.18,270.99 397.82,270.99 360.0,275.0"/><polygon class="cell-face-b" points="322.18,335.99 397.82,335.99 360.0,340.0"/>
  <path class="strut" d="M208.74,323.97 L284.37,323.97 L246.55,327.98 Z M208.74,323.97 L246.55,262.98 M284.37,323.97 L246.55,262.98 M246.55,327.98 L246.55,262.98"/><path class="strut" d="M284.37,323.97 L360.0,323.97 L322.18,327.98 Z M284.37,323.97 L322.18,262.98 M360.0,323.97 L322.18,262.98 M322.18,327.98 L322.18,262.98"/><path class="strut" d="M360.0,323.97 L435.63,323.97 L397.82,327.98 Z M360.0,323.97 L397.82,262.98 M435.63,323.97 L397.82,262.98 M397.82,327.98 L397.82,262.98"/><path class="strut" d="M435.63,323.97 L511.26,323.97 L473.45,327.98 Z M435.63,323.97 L473.45,262.98 M511.26,323.97 L473.45,262.98 M473.45,327.98 L473.45,262.98"/><path class="strut" d="M246.55,262.98 L322.18,262.98 L284.37,266.98 Z M246.55,262.98 L284.37,201.98 M322.18,262.98 L284.37,201.98 M284.37,266.98 L284.37,201.98"/><path class="strut" d="M322.18,262.98 L397.82,262.98 L360.0,266.98 Z M322.18,262.98 L360.0,201.98 M397.82,262.98 L360.0,201.98 M360.0,266.98 L360.0,201.98"/><path class="strut" d="M397.82,262.98 L473.45,262.98 L435.63,266.98 Z M397.82,262.98 L435.63,201.98 M473.45,262.98 L435.63,201.98 M435.63,266.98 L435.63,201.98"/><path class="strut" d="M246.55,327.98 L322.18,327.98 L284.37,331.98 Z M246.55,327.98 L284.37,266.98 M322.18,327.98 L284.37,266.98 M284.37,331.98 L284.37,266.98"/><path class="strut" d="M322.18,327.98 L397.82,327.98 L360.0,331.98 Z M322.18,327.98 L360.0,266.98 M397.82,327.98 L360.0,266.98 M360.0,331.98 L360.0,266.98"/><path class="strut" d="M397.82,327.98 L473.45,327.98 L435.63,331.98 Z M397.82,327.98 L435.63,266.98 M473.45,327.98 L435.63,266.98 M435.63,331.98 L435.63,266.98"/><path class="strut" d="M284.37,201.98 L360.0,201.98 L322.18,205.99 Z M284.37,201.98 L322.18,140.99 M360.0,201.98 L322.18,140.99 M322.18,205.99 L322.18,140.99"/><path class="strut" d="M360.0,201.98 L435.63,201.98 L397.82,205.99 Z M360.0,201.98 L397.82,140.99 M435.63,201.98 L397.82,140.99 M397.82,205.99 L397.82,140.99"/><path class="strut" d="M284.37,266.98 L360.0,266.98 L322.18,270.99 Z M284.37,266.98 L322.18,205.99 M360.0,266.98 L322.18,205.99 M322.18,270.99 L322.18,205.99"/><path class="strut" d="M360.0,266.98 L435.63,266.98 L397.82,270.99 Z M360.0,266.98 L397.82,205.99 M435.63,266.98 L397.82,205.99 M397.82,270.99 L397.82,205.99"/><path class="strut" d="M322.18,140.99 L397.82,140.99 L360.0,145.0 Z M322.18,140.99 L360.0,80.0 M397.82,140.99 L360.0,80.0 M360.0,145.0 L360.0,80.0"/><path class="strut" d="M284.37,331.98 L360.0,331.98 L322.18,335.99 Z M284.37,331.98 L322.18,270.99 M360.0,331.98 L322.18,270.99 M322.18,335.99 L322.18,270.99"/><path class="strut" d="M360.0,331.98 L435.63,331.98 L397.82,335.99 Z M360.0,331.98 L397.82,270.99 M435.63,331.98 L397.82,270.99 M397.82,335.99 L397.82,270.99"/><path class="strut" d="M322.18,205.99 L397.82,205.99 L360.0,210.0 Z M322.18,205.99 L360.0,145.0 M397.82,205.99 L360.0,145.0 M360.0,210.0 L360.0,145.0"/><path class="strut" d="M322.18,270.99 L397.82,270.99 L360.0,275.0 Z M322.18,270.99 L360.0,210.0 M397.82,270.99 L360.0,210.0 M360.0,275.0 L360.0,210.0"/><path class="strut" d="M322.18,335.99 L397.82,335.99 L360.0,340.0 Z M322.18,335.99 L360.0,275.0 M397.82,335.99 L360.0,275.0 M360.0,340.0 L360.0,275.0"/>
  <circle class="joint" cx="208.74" cy="323.97" r="3"/><circle class="joint" cx="284.37" cy="323.97" r="3"/><circle class="joint" cx="246.55" cy="327.98" r="3"/><circle class="joint" cx="246.55" cy="262.98" r="3"/><circle class="joint" cx="360.0" cy="323.97" r="3"/><circle class="joint" cx="322.18" cy="327.98" r="3"/><circle class="joint" cx="322.18" cy="262.98" r="3"/><circle class="joint" cx="435.63" cy="323.97" r="3"/><circle class="joint" cx="397.82" cy="327.98" r="3"/><circle class="joint" cx="397.82" cy="262.98" r="3"/><circle class="joint" cx="511.26" cy="323.97" r="3"/><circle class="joint" cx="473.45" cy="327.98" r="3"/><circle class="joint" cx="473.45" cy="262.98" r="3"/><circle class="joint" cx="284.37" cy="266.98" r="3"/><circle class="joint" cx="284.37" cy="201.98" r="3"/><circle class="joint" cx="360.0" cy="266.98" r="3"/><circle class="joint" cx="360.0" cy="201.98" r="3"/><circle class="joint" cx="435.63" cy="266.98" r="3"/><circle class="joint" cx="435.63" cy="201.98" r="3"/><circle class="joint" cx="284.37" cy="331.98" r="3"/><circle class="joint" cx="360.0" cy="331.98" r="3"/><circle class="joint" cx="435.63" cy="331.98" r="3"/><circle class="joint" cx="322.18" cy="205.99" r="3"/><circle class="joint" cx="322.18" cy="140.99" r="3"/><circle class="joint" cx="397.82" cy="205.99" r="3"/><circle class="joint" cx="397.82" cy="140.99" r="3"/><circle class="joint" cx="322.18" cy="270.99" r="3"/><circle class="joint" cx="397.82" cy="270.99" r="3"/><circle class="joint" cx="360.0" cy="145.0" r="3"/><circle class="joint" cx="360.0" cy="80.0" r="3"/><circle class="joint" cx="322.18" cy="335.99" r="3"/><circle class="joint" cx="397.82" cy="335.99" r="3"/><circle class="joint" cx="360.0" cy="210.0" r="3"/><circle class="joint" cx="360.0" cy="275.0" r="3"/><circle class="joint" cx="360.0" cy="340.0" r="3"/>
  <g class="rotor-icon" transform="translate(246.55,262.98)"><line x1="0" y1="-13.35" x2="0" y2="13.35" class="rotor-shaft"/><path d="M 0,-9.35 A 9.35,5.609999999999999 0 0 1 0,0 A 9.35,5.609999999999999 0 0 0 0,9.35 A 9.35,5.609999999999999 0 0 1 0,-9.35 Z" class="rotor-blade"/></g><g class="rotor-icon" transform="translate(284.37,266.98)"><line x1="0" y1="-13.35" x2="0" y2="13.35" class="rotor-shaft"/><path d="M 0,-9.35 A 9.35,5.609999999999999 0 0 1 0,0 A 9.35,5.609999999999999 0 0 0 0,9.35 A 9.35,5.609999999999999 0 0 1 0,-9.35 Z" class="rotor-blade"/></g><g class="rotor-icon" transform="translate(473.45,262.98)"><line x1="0" y1="-13.35" x2="0" y2="13.35" class="rotor-shaft"/><path d="M 0,-9.35 A 9.35,5.609999999999999 0 0 1 0,0 A 9.35,5.609999999999999 0 0 0 0,9.35 A 9.35,5.609999999999999 0 0 1 0,-9.35 Z" class="rotor-blade"/></g><g class="rotor-icon" transform="translate(360.0,266.98)"><line x1="0" y1="-13.35" x2="0" y2="13.35" class="rotor-shaft"/><path d="M 0,-9.35 A 9.35,5.609999999999999 0 0 1 0,0 A 9.35,5.609999999999999 0 0 0 0,9.35 A 9.35,5.609999999999999 0 0 1 0,-9.35 Z" class="rotor-blade"/></g><g class="rotor-icon" transform="translate(322.18,262.98)"><line x1="0" y1="-13.35" x2="0" y2="13.35" class="rotor-shaft"/><path d="M 0,-9.35 A 9.35,5.609999999999999 0 0 1 0,0 A 9.35,5.609999999999999 0 0 0 0,9.35 A 9.35,5.609999999999999 0 0 1 0,-9.35 Z" class="rotor-blade"/></g><g class="rotor-icon" transform="translate(322.18,270.99)"><line x1="0" y1="-13.35" x2="0" y2="13.35" class="rotor-shaft"/><path d="M 0,-9.35 A 9.35,5.609999999999999 0 0 1 0,0 A 9.35,5.609999999999999 0 0 0 0,9.35 A 9.35,5.609999999999999 0 0 1 0,-9.35 Z" class="rotor-blade"/></g><g class="rotor-icon" transform="translate(397.82,262.98)"><line x1="0" y1="-13.35" x2="0" y2="13.35" class="rotor-shaft"/><path d="M 0,-9.35 A 9.35,5.609999999999999 0 0 1 0,0 A 9.35,5.609999999999999 0 0 0 0,9.35 A 9.35,5.609999999999999 0 0 1 0,-9.35 Z" class="rotor-blade"/></g><g class="rotor-icon" transform="translate(397.82,270.99)"><line x1="0" y1="-13.35" x2="0" y2="13.35" class="rotor-shaft"/><path d="M 0,-9.35 A 9.35,5.609999999999999 0 0 1 0,0 A 9.35,5.609999999999999 0 0 0 0,9.35 A 9.35,5.609999999999999 0 0 1 0,-9.35 Z" class="rotor-blade"/></g><g class="rotor-icon" transform="translate(435.63,266.98)"><line x1="0" y1="-13.35" x2="0" y2="13.35" class="rotor-shaft"/><path d="M 0,-9.35 A 9.35,5.609999999999999 0 0 1 0,0 A 9.35,5.609999999999999 0 0 0 0,9.35 A 9.35,5.609999999999999 0 0 1 0,-9.35 Z" class="rotor-blade"/></g><g class="rotor-icon" transform="translate(360.0,275.0)"><line x1="0" y1="-13.35" x2="0" y2="13.35" class="rotor-shaft"/><path d="M 0,-9.35 A 9.35,5.609999999999999 0 0 1 0,0 A 9.35,5.609999999999999 0 0 0 0,9.35 A 9.35,5.609999999999999 0 0 1 0,-9.35 Z" class="rotor-blade"/></g><g class="rotor-icon" transform="translate(322.18,205.99)"><line x1="0" y1="-13.35" x2="0" y2="13.35" class="rotor-shaft"/><path d="M 0,-9.35 A 9.35,5.609999999999999 0 0 1 0,0 A 9.35,5.609999999999999 0 0 0 0,9.35 A 9.35,5.609999999999999 0 0 1 0,-9.35 Z" class="rotor-blade"/></g><g class="rotor-icon" transform="translate(360.0,210.0)"><line x1="0" y1="-13.35" x2="0" y2="13.35" class="rotor-shaft"/><path d="M 0,-9.35 A 9.35,5.609999999999999 0 0 1 0,0 A 9.35,5.609999999999999 0 0 0 0,9.35 A 9.35,5.609999999999999 0 0 1 0,-9.35 Z" class="rotor-blade"/></g><g class="rotor-icon" transform="translate(284.37,201.98)"><line x1="0" y1="-13.35" x2="0" y2="13.35" class="rotor-shaft"/><path d="M 0,-9.35 A 9.35,5.609999999999999 0 0 1 0,0 A 9.35,5.609999999999999 0 0 0 0,9.35 A 9.35,5.609999999999999 0 0 1 0,-9.35 Z" class="rotor-blade"/></g><g class="rotor-icon" transform="translate(360.0,201.98)"><line x1="0" y1="-13.35" x2="0" y2="13.35" class="rotor-shaft"/><path d="M 0,-9.35 A 9.35,5.609999999999999 0 0 1 0,0 A 9.35,5.609999999999999 0 0 0 0,9.35 A 9.35,5.609999999999999 0 0 1 0,-9.35 Z" class="rotor-blade"/></g><g class="rotor-icon" transform="translate(435.63,201.98)"><line x1="0" y1="-13.35" x2="0" y2="13.35" class="rotor-shaft"/><path d="M 0,-9.35 A 9.35,5.609999999999999 0 0 1 0,0 A 9.35,5.609999999999999 0 0 0 0,9.35 A 9.35,5.609999999999999 0 0 1 0,-9.35 Z" class="rotor-blade"/></g><g class="rotor-icon" transform="translate(397.82,205.99)"><line x1="0" y1="-13.35" x2="0" y2="13.35" class="rotor-shaft"/><path d="M 0,-9.35 A 9.35,5.609999999999999 0 0 1 0,0 A 9.35,5.609999999999999 0 0 0 0,9.35 A 9.35,5.609999999999999 0 0 1 0,-9.35 Z" class="rotor-blade"/></g><g class="rotor-icon" transform="translate(397.82,140.99)"><line x1="0" y1="-13.35" x2="0" y2="13.35" class="rotor-shaft"/><path d="M 0,-9.35 A 9.35,5.609999999999999 0 0 1 0,0 A 9.35,5.609999999999999 0 0 0 0,9.35 A 9.35,5.609999999999999 0 0 1 0,-9.35 Z" class="rotor-blade"/></g><g class="rotor-icon" transform="translate(322.18,140.99)"><line x1="0" y1="-13.35" x2="0" y2="13.35" class="rotor-shaft"/><path d="M 0,-9.35 A 9.35,5.609999999999999 0 0 1 0,0 A 9.35,5.609999999999999 0 0 0 0,9.35 A 9.35,5.609999999999999 0 0 1 0,-9.35 Z" class="rotor-blade"/></g><g class="rotor-icon" transform="translate(360.0,145.0)"><line x1="0" y1="-13.35" x2="0" y2="13.35" class="rotor-shaft"/><path d="M 0,-9.35 A 9.35,5.609999999999999 0 0 1 0,0 A 9.35,5.609999999999999 0 0 0 0,9.35 A 9.35,5.609999999999999 0 0 1 0,-9.35 Z" class="rotor-blade"/></g>

  <path class="tether" d="M360.0,340.0 C 350.0,330 340.0,375 335.0,408"/>

  <g transform="translate(265.0,406)">
    <rect class="ground-station" x="0" y="0" width="150" height="60" rx="8"/>
    <circle cx="32" cy="30" r="17" fill="none" stroke="#6b4a2f" stroke-width="2"/>
    <circle cx="32" cy="30" r="4" fill="#6b4a2f"/>
    <text class="callout" x="32" y="54" text-anchor="middle">Winch + generator</text>
    <path d="M54,22 L85,15" stroke="#2f9e44" stroke-width="2" marker-end="url(#arrowgreen)"/>
    <text class="label" x="90" y="18">To grid</text>
  </g>

  <g transform="translate(40,435)">
    <path class="leaf" d="M0,20 Q10,-10 20,20 Q10,10 0,20 Z"/>
    <path class="leaf" d="M15,22 Q25,-5 35,22 Q25,14 15,22 Z"/>
  </g>
  <g transform="translate(630,430)">
    <path class="leaf" d="M0,20 Q10,-10 20,20 Q10,10 0,20 Z"/>
    <path class="leaf" d="M15,22 Q25,-5 35,22 Q25,14 15,22 Z"/>
  </g>

  <defs>
    <marker id="arrowgreen" markerWidth="8" markerHeight="8" refX="6" refY="3" orient="auto">
      <polygon points="0,0 7,3 0,6" fill="#2f9e44"/>
    </marker>
  </defs>
</svg>