<svg width="720" height="360" viewBox="0 0 720 360" xmlns="http://www.w3.org/2000/svg" font-family="sans-serif" role="img"
     aria-label="Schematic diagram of the 10-cell tetrahedral kite from two angles, showing exterior joints (red, 3-socket hub) at the outer tips and interior joints (blue, 6-socket hub) where cells meet.">
  <title>Tetrahedral kite — front view and 3/4 view</title>
  <style>
    .strut { stroke: #3a3a3a; stroke-width: 1.4; fill: none; }
    .cell-face { fill: #85b7eb; fill-opacity: 0.55; stroke: none; }
    .cell-face-alt { fill: #5dcaa5; fill-opacity: 0.55; stroke: none; }
    .ext-joint { fill: #d6473c; stroke: #7a221c; stroke-width: 1; }
    .int-joint { fill: #2c62c9; stroke: #17356f; stroke-width: 1; }
    .label { font-size: 12px; fill: #2c2c2a; }
    .caption { font-size: 13px; fill: #2c2c2a; font-weight: 600; }
  </style>

<g transform="translate(30,40)">
<text class="caption" x="150.0" y="-10" text-anchor="middle">Front view</text>
<polygon class="cell-face" points="24.0,222.93 106.22,222.93 65.11,227.29"/>
<path class="strut" d="M24.0,222.93 L106.22,222.93 L65.11,227.29 Z M24.0,222.93 L65.11,156.62 M106.22,222.93 L65.11,156.62 M65.11,227.29 L65.11,156.62"/>
<polygon class="cell-face-alt" points="106.22,222.93 188.45,222.93 147.34,227.29"/>
<path class="strut" d="M106.22,222.93 L188.45,222.93 L147.34,227.29 Z M106.22,222.93 L147.34,156.62 M188.45,222.93 L147.34,156.62 M147.34,227.29 L147.34,156.62"/>
<polygon class="cell-face" points="188.45,222.93 270.67,222.93 229.56,227.29"/>
<path class="strut" d="M188.45,222.93 L270.67,222.93 L229.56,227.29 Z M188.45,222.93 L229.56,156.62 M270.67,222.93 L229.56,156.62 M229.56,227.29 L229.56,156.62"/>
<polygon class="cell-face-alt" points="65.11,156.62 147.34,156.62 106.22,160.98"/>
<path class="strut" d="M65.11,156.62 L147.34,156.62 L106.22,160.98 Z M65.11,156.62 L106.22,90.31 M147.34,156.62 L106.22,90.31 M106.22,160.98 L106.22,90.31"/>
<polygon class="cell-face" points="147.34,156.62 229.56,156.62 188.45,160.98"/>
<path class="strut" d="M147.34,156.62 L229.56,156.62 L188.45,160.98 Z M147.34,156.62 L188.45,90.31 M229.56,156.62 L188.45,90.31 M188.45,160.98 L188.45,90.31"/>
<polygon class="cell-face-alt" points="65.11,227.29 147.34,227.29 106.22,231.64"/>
<path class="strut" d="M65.11,227.29 L147.34,227.29 L106.22,231.64 Z M65.11,227.29 L106.22,160.98 M147.34,227.29 L106.22,160.98 M106.22,231.64 L106.22,160.98"/>
<polygon class="cell-face" points="147.34,227.29 229.56,227.29 188.45,231.64"/>
<path class="strut" d="M147.34,227.29 L229.56,227.29 L188.45,231.64 Z M147.34,227.29 L188.45,160.98 M229.56,227.29 L188.45,160.98 M188.45,231.64 L188.45,160.98"/>
<polygon class="cell-face-alt" points="106.22,90.31 188.45,90.31 147.34,94.67"/>
<path class="strut" d="M106.22,90.31 L188.45,90.31 L147.34,94.67 Z M106.22,90.31 L147.34,24.0 M188.45,90.31 L147.34,24.0 M147.34,94.67 L147.34,24.0"/>
<polygon class="cell-face" points="106.22,160.98 188.45,160.98 147.34,165.33"/>
<path class="strut" d="M106.22,160.98 L188.45,160.98 L147.34,165.33 Z M106.22,160.98 L147.34,94.67 M188.45,160.98 L147.34,94.67 M147.34,165.33 L147.34,94.67"/>
<polygon class="cell-face-alt" points="106.22,231.64 188.45,231.64 147.34,236.0"/>
<path class="strut" d="M106.22,231.64 L188.45,231.64 L147.34,236.0 Z M106.22,231.64 L147.34,165.33 M188.45,231.64 L147.34,165.33 M147.34,236.0 L147.34,165.33"/>
<circle class="ext-joint" cx="24.0" cy="222.93" r="5"/>
<circle class="int-joint" cx="106.22" cy="222.93" r="5"/>
<circle class="int-joint" cx="65.11" cy="227.29" r="5"/>
<circle class="int-joint" cx="65.11" cy="156.62" r="5"/>
<circle class="int-joint" cx="188.45" cy="222.93" r="5"/>
<circle class="int-joint" cx="147.34" cy="227.29" r="5"/>
<circle class="int-joint" cx="147.34" cy="156.62" r="5"/>
<circle class="ext-joint" cx="270.67" cy="222.93" r="5"/>
<circle class="int-joint" cx="229.56" cy="227.29" r="5"/>
<circle class="int-joint" cx="229.56" cy="156.62" r="5"/>
<circle class="int-joint" cx="106.22" cy="231.64" r="5"/>
<circle class="int-joint" cx="106.22" cy="160.98" r="5"/>
<circle class="int-joint" cx="188.45" cy="231.64" r="5"/>
<circle class="int-joint" cx="188.45" cy="160.98" r="5"/>
<circle class="ext-joint" cx="147.34" cy="236.0" r="5"/>
<circle class="int-joint" cx="147.34" cy="165.33" r="5"/>
<circle class="int-joint" cx="106.22" cy="90.31" r="5"/>
<circle class="int-joint" cx="188.45" cy="90.31" r="5"/>
<circle class="int-joint" cx="147.34" cy="94.67" r="5"/>
<circle class="ext-joint" cx="147.34" cy="24.0" r="5"/>
</g>

<g transform="translate(380,40)">
<text class="caption" x="150.0" y="-10" text-anchor="middle">3/4 view</text>
<polygon class="cell-face" points="155.5,155.67 221.25,204.38 188.38,214.92"/>
<path class="strut" d="M155.5,155.67 L221.25,204.38 L188.38,214.92 Z M155.5,155.67 L233.43,144.25 M221.25,204.38 L233.43,144.25 M188.38,214.92 L233.43,144.25"/>
<polygon class="cell-face-alt" points="89.75,106.95 155.5,155.67 122.63,166.21"/>
<path class="strut" d="M89.75,106.95 L155.5,155.67 L122.63,166.21 Z M89.75,106.95 L167.68,95.54 M155.5,155.67 L167.68,95.54 M122.63,166.21 L167.68,95.54"/>
<polygon class="cell-face" points="24.0,58.24 89.75,106.95 56.88,117.49"/>
<path class="strut" d="M24.0,58.24 L89.75,106.95 L56.88,117.49 Z M24.0,58.24 L101.92,46.82 M89.75,106.95 L101.92,46.82 M56.88,117.49 L101.92,46.82"/>
<polygon class="cell-face-alt" points="167.68,95.54 233.43,144.25 200.55,154.79"/>
<path class="strut" d="M167.68,95.54 L233.43,144.25 L200.55,154.79 Z M167.68,95.54 L245.6,84.13 M233.43,144.25 L245.6,84.13 M200.55,154.79 L245.6,84.13"/>
<polygon class="cell-face" points="122.63,166.21 188.38,214.92 155.5,225.46"/>
<path class="strut" d="M122.63,166.21 L188.38,214.92 L155.5,225.46 Z M122.63,166.21 L200.55,154.79 M188.38,214.92 L200.55,154.79 M155.5,225.46 L200.55,154.79"/>
<polygon class="cell-face-alt" points="101.92,46.82 167.68,95.54 134.8,106.08"/>
<path class="strut" d="M101.92,46.82 L167.68,95.54 L134.8,106.08 Z M101.92,46.82 L179.85,35.41 M167.68,95.54 L179.85,35.41 M134.8,106.08 L179.85,35.41"/>
<polygon class="cell-face" points="56.88,117.49 122.63,166.21 89.75,176.75"/>
<path class="strut" d="M56.88,117.49 L122.63,166.21 L89.75,176.75 Z M56.88,117.49 L134.8,106.08 M122.63,166.21 L134.8,106.08 M89.75,176.75 L134.8,106.08"/>
<polygon class="cell-face-alt" points="179.85,35.41 245.6,84.13 212.72,94.67"/>
<path class="strut" d="M179.85,35.41 L245.6,84.13 L212.72,94.67 Z M179.85,35.41 L257.77,24.0 M245.6,84.13 L257.77,24.0 M212.72,94.67 L257.77,24.0"/>
<polygon class="cell-face" points="134.8,106.08 200.55,154.79 167.68,165.33"/>
<path class="strut" d="M134.8,106.08 L200.55,154.79 L167.68,165.33 Z M134.8,106.08 L212.72,94.67 M200.55,154.79 L212.72,94.67 M167.68,165.33 L212.72,94.67"/>
<polygon class="cell-face-alt" points="89.75,176.75 155.5,225.46 122.63,236.0"/>
<path class="strut" d="M89.75,176.75 L155.5,225.46 L122.63,236.0 Z M89.75,176.75 L167.68,165.33 M155.5,225.46 L167.68,165.33 M122.63,236.0 L167.68,165.33"/>
<circle class="ext-joint" cx="24.0" cy="58.24" r="5"/>
<circle class="int-joint" cx="89.75" cy="106.95" r="5"/>
<circle class="int-joint" cx="56.88" cy="117.49" r="5"/>
<circle class="int-joint" cx="101.92" cy="46.82" r="5"/>
<circle class="int-joint" cx="155.5" cy="155.67" r="5"/>
<circle class="int-joint" cx="122.63" cy="166.21" r="5"/>
<circle class="int-joint" cx="167.68" cy="95.54" r="5"/>
<circle class="ext-joint" cx="221.25" cy="204.38" r="5"/>
<circle class="int-joint" cx="188.38" cy="214.92" r="5"/>
<circle class="int-joint" cx="233.43" cy="144.25" r="5"/>
<circle class="int-joint" cx="89.75" cy="176.75" r="5"/>
<circle class="int-joint" cx="134.8" cy="106.08" r="5"/>
<circle class="int-joint" cx="155.5" cy="225.46" r="5"/>
<circle class="int-joint" cx="200.55" cy="154.79" r="5"/>
<circle class="ext-joint" cx="122.63" cy="236.0" r="5"/>
<circle class="int-joint" cx="167.68" cy="165.33" r="5"/>
<circle class="int-joint" cx="179.85" cy="35.41" r="5"/>
<circle class="int-joint" cx="245.6" cy="84.13" r="5"/>
<circle class="int-joint" cx="212.72" cy="94.67" r="5"/>
<circle class="ext-joint" cx="257.77" cy="24.0" r="5"/>
</g>

  <g transform="translate(30,320)">
    <circle class="ext-joint" cx="8" cy="0" r="6"/>
    <text class="label" x="20" y="4">Exterior joint — 3-socket hub (kite_corner.scad)</text>
    <circle class="int-joint" cx="340" cy="0" r="6"/>
    <text class="label" x="352" y="4">Interior joint — 6-socket hub (kite_corner_interior.scad)</text>
  </g>
</svg>
